PathFileType	4	(X/Y/Z)	E:\Marcel_BSc\Ayumi_22_01_2025\22-01-2025\static_00.trc
DataRate	CameraRate	NumFrames	NumMarkers	Units	OrigDataRate	OrigDataStartFrame	OrigNumFrames
200.0	200.0	4	59	mm	200.0	96	352	
Frame#	Time	FHD			LBHD			RBHD			RBAR			LBAR			RASI			RSACR			LSACR			LASI			USACR			C7			CLAV			T10			RSHO			LSHO			LTHI1			LTHI3			LTHI2			LLFC			LMFC			LTIB1			LTIB2			LTIB3			LMMAL			LLMAL			LHEE			LMT1			LMT5			LMT3			RTHI1			RTHI2			RTHI3			RLFC			RMFC			RTIB1			RTIB3			RTIB2			RLMAL			RMMAL			RHEE			RMT5			RMT1			RMT3			LMEP			LLEP			LDUPA			LMUPA			LUUPA			LUL			LRAD			LRFIN			RUL			RRAD			RUFIN			RMEP			RLEP			RMUPA			RDUPA			RUUPA			
		X1	Y1	Z1	X2	Y2	Z2	X3	Y3	Z3	X4	Y4	Z4	X5	Y5	Z5	X6	Y6	Z6	X7	Y7	Z7	X8	Y8	Z8	X9	Y9	Z9	X10	Y10	Z10	X11	Y11	Z11	X12	Y12	Z12	X13	Y13	Z13	X14	Y14	Z14	X15	Y15	Z15	X16	Y16	Z16	X17	Y17	Z17	X18	Y18	Z18	X19	Y19	Z19	X20	Y20	Z20	X21	Y21	Z21	X22	Y22	Z22	X23	Y23	Z23	X24	Y24	Z24	X25	Y25	Z25	X26	Y26	Z26	X27	Y27	Z27	X28	Y28	Z28	X29	Y29	Z29	X30	Y30	Z30	X31	Y31	Z31	X32	Y32	Z32	X33	Y33	Z33	X34	Y34	Z34	X35	Y35	Z35	X36	Y36	Z36	X37	Y37	Z37	X38	Y38	Z38	X39	Y39	Z39	X40	Y40	Z40	X41	Y41	Z41	X42	Y42	Z42	X43	Y43	Z43	X44	Y44	Z44	X45	Y45	Z45	X46	Y46	Z46	X47	Y47	Z47	X48	Y48	Z48	X49	Y49	Z49	X50	Y50	Z50	X51	Y51	Z51	X52	Y52	Z52	X53	Y53	Z53	X54	Y54	Z54	X55	Y55	Z55	X56	Y56	Z56	X57	Y57	Z57	X58	Y58	Z58	X59	Y59	Z59	
96	0.47	109.41575	1611.9622	-969.92188	127.27018	1595.1886	-909.48804	146.1209	1583.3439	-1040.276				1041.0339	20.020138	-2031.5872	161.7664	927.32501	-1102.627	322.08264	958.87787	-1015.6851	319.06195	960.64789	-941.68152	148.58153	912.4953	-865.58148	314.30371	970.36987	-979.66132	297.78992	1401.1454	-964.75427	163.02286	1329.4081	-981.75952	319.82288	1117.3409	-974.10846	236.85936	1405.7579	-1114.0966	216.31731	1398.353	-831.42761	236.9447	606.45587	-807.52106	261.49402	546.13428	-818.81238	210.79529	545.82166	-817.92096	229.4928	449.32858	-840.68481	241.8869	442.22049	-939.33771	256.53018	233.64613	-818.77979	306.66116	232.48589	-815.46899	279.93628	173.48975	-825.73285	284.27518	71.843323	-914.68622	297.87598	69.612915	-843.40442	340.98349	33.990215	-881.70734	143.87238	39.175766	-873.68066	169.43143	26.802359	-797.00952	144.83868	37.254784	-837.70605	257.13702	607.95087	-1156.7014	229.25066	549.37036	-1149.0013	281.07132	547.65967	-1147.2869	239.84904	455.01321	-1125.4702	247.59288	449.25623	-1024.2028	271.03152	277.29657	-1159.6849	294.1041	215.3631	-1155.5233	321.69846	275.33939	-1160.7081	307.57956	73.615669	-1134.9218	276.82364	75.62175	-1063.9749	351.5965	28.395409	-1095.3557	178.76479	29.34782	-1179.4209	151.09372	37.722393	-1115.5316	156.16167	36.019726	-1148.2678	265.28354	1274.7526	-1374.5555	303.89258	1335.1398	-1378.2971	313.44394	1348.9275	-1278.4973	310.17276	1361.1823	-1218.3776	328.78708	1316.0341	-1208.2858	232.87	1330.8516	-327.22556	169.05583	1348.8342	-319.85754	180.51567	1345.1056	-245.67773	283.17813	1334.3114	-1612.3506	222.84895	1350.1785	-1613.2438	222.03241	1346.5594	-1687.2726	203.47122	1276.8469	-581.83649	254.41399	1327.8289	-564.14642	253.24124	1360.2314	-644.79718	282.95474	1320.5861	-640.77484	269.30505	1366.7744	-704.59644
97	0.475	109.46269	1611.9043	-970.00836	127.27073	1595.2191	-909.49902	146.16118	1583.3494	-1040.2924				1041.03	20.024593	-2031.5406	161.76167	927.32745	-1102.6239	322.04559	958.91614	-1015.6912	319.06366	960.63629	-941.68243	148.57243	912.49591	-865.58905	314.30429	970.35687	-979.67041	297.77704	1401.1442	-964.75885	163.01631	1329.3915	-981.76007	319.80603	1117.3243	-974.12512	236.82822	1405.7705	-1114.0906	216.30052	1398.3586	-831.41449	236.95229	606.46692	-807.5199	261.49387	546.1059	-818.80835	210.8013	545.82172	-817.91931	229.49812	449.31277	-840.69489	241.88889	442.22052	-939.34753	256.51804	233.6472	-818.81268	306.67703	232.45354	-815.47137	279.93646	173.48315	-825.72815	284.2731	71.834381	-914.68219	297.8627	69.610153	-843.40936	340.98975	33.96505	-881.71802	143.8613	39.187263	-873.67572	169.42465	26.843182	-796.96576	144.84486	37.250618	-837.70703	257.15192	607.9444	-1156.7019	229.24329	549.38855	-1149.0146	281.09671	547.64252	-1147.2998	239.86153	455.00574	-1125.4893	247.58551	449.25906	-1024.2233	271.03165	277.29846	-1159.6859	294.1199	215.35376	-1155.533	321.73547	275.74097	-1160.9667	307.58316	73.606499	-1134.9241	276.8266	75.617332	-1063.9668	351.59479	28.414484	-1095.3523	178.76828	29.36301	-1179.4025	151.0927	37.719643	-1115.5172	156.16467	36.008278	-1148.2703	265.27557	1274.7167	-1374.5433	303.84698	1335.1418	-1378.2799	313.40045	1348.9186	-1278.5048	310.15573	1361.1187	-1218.3976	328.76935	1316.0457	-1208.2789	232.82401	1330.7521	-327.22098	169.06151	1348.6796	-319.81113	180.43465	1344.9906	-245.68674	283.14545	1334.269	-1612.3409	222.79277	1350.1453	-1613.2467	222.00131	1346.4788	-1687.2799	203.42357	1276.8037	-581.85687	254.36076	1327.7776	-564.14612	253.21426	1360.2056	-644.7937	282.91437	1320.5983	-640.77197	269.26318	1366.7645	-704.58264
98	0.48	109.48564	1611.885	-970.04651	127.27508	1595.2579	-909.48944	146.18169	1583.3627	-1040.3151				1040.9777	20.046005	-2031.5464	161.75925	927.32263	-1102.6173	322.05829	958.9068	-1015.6933	319.05228	960.63934	-941.68982	148.58875	912.48315	-865.57452	314.31088	970.34161	-979.68542	297.75992	1401.1437	-964.74915	162.99377	1329.3956	-981.74609	319.79855	1117.3239	-974.117	236.8232	1405.7413	-1114.0947	216.29402	1398.3704	-831.40845	236.95877	606.45844	-807.52954	261.51706	546.11902	-818.82013	210.81569	545.82202	-817.92291	229.50958	449.32239	-840.69153	241.92078	442.20261	-939.33032	256.40665	233.55579	-819.56281	306.65982	232.45901	-815.46899	279.9375	173.48097	-825.72528	284.28406	71.82048	-914.68579	297.88632	69.616798	-843.40399	340.97198	33.989975	-881.67694	143.86327	39.184917	-873.67542	169.41505	26.861673	-796.95569	144.84151	37.259663	-837.69452	257.14481	607.97009	-1156.7064	229.2796	549.37354	-1148.9835	281.11337	547.64178	-1147.2975	239.90184	454.96533	-1125.4946	247.62975	449.22922	-1024.2013	271.04962	277.28891	-1159.692	294.14069	215.34239	-1155.5304	321.71252	275.32281	-1160.7158	307.57864	73.604218	-1134.9199	276.83615	75.60733	-1063.9697	351.59943	28.406406	-1095.3534	178.76756	29.367725	-1179.4036	151.09477	37.720932	-1115.5232	156.16415	36.023361	-1148.2694	265.23819	1274.6958	-1374.5383	303.79575	1335.1161	-1378.288	313.36493	1348.9086	-1278.5083	310.12357	1361.1466	-1218.3867	328.73297	1316.0681	-1208.2712	232.78693	1330.6631	-327.20929	169.01764	1348.658	-319.78061	180.39822	1344.9076	-245.68658	283.11401	1334.2347	-1612.3413	223.08362	1349.8235	-1613.2368	221.95718	1346.3763	-1687.3093	203.38853	1276.8101	-581.85968	254.31007	1327.7571	-564.13818	253.17279	1360.2095	-644.78918	282.88095	1320.6123	-640.76703	269.24139	1366.7607	-704.58307
99	0.485	109.49478	1611.9447	-970.01971	127.26097	1595.2831	-909.51917	146.19685	1583.3745	-1040.3209				1041.0156	20.028927	-2031.5569	161.7513	927.32007	-1102.6654	322.06146	958.87207	-1015.7038	319.04651	960.63403	-941.69849	148.59157	912.48322	-865.57269	314.2955	970.36688	-979.68158	297.74121	1401.1313	-964.75122	162.98236	1329.3928	-981.7511	319.77927	1117.3315	-974.1192	236.7988	1405.7412	-1114.0891	216.26859	1398.348	-831.40912	236.95619	606.43536	-807.53351	261.5239	546.09009	-818.82471	210.82036	545.80109	-817.92029	229.50145	449.31253	-840.71082	241.91992	442.1976	-939.34998	256.42621	233.54482	-819.55298	306.69193	232.47929	-815.48187	279.93256	173.48083	-825.73224	284.29645	71.832153	-914.68176	297.88336	69.611336	-843.41046	340.99002	33.969109	-881.70428	143.85684	39.154942	-873.67737	169.44443	26.818796	-796.97937	144.84644	37.216461	-837.71796	257.15732	607.93555	-1156.7299	229.3149	549.35345	-1148.998	281.13419	547.65192	-1147.2909	239.89359	455.01294	-1125.4806	247.63002	449.23517	-1024.2253	271.04593	277.29245	-1159.6876	294.13513	215.36139	-1155.5371	321.76807	275.5065	-1160.848	307.58881	73.596367	-1134.9283	276.82562	75.62001	-1063.9791	351.59308	28.407316	-1095.3488	178.76495	29.365021	-1179.4001	151.10739	37.708042	-1115.5338	156.16449	36.014931	-1148.2673	265.19852	1274.676	-1374.5298	303.76175	1335.1249	-1378.2844	313.32886	1348.9031	-1278.5137	310.09	1361.1577	-1218.3878	328.71838	1316.0632	-1208.2762	232.75494	1330.6096	-327.207	168.96812	1348.6077	-319.79892	180.3647	1344.843	-245.65755	283.10196	1334.1796	-1612.3428	223.06024	1349.7787	-1613.2628	221.96626	1346.2863	-1687.3472	203.34932	1276.7725	-581.85889	254.28206	1327.7419	-564.12537	253.16792	1360.2443	-644.75549	282.86337	1320.6122	-640.75659	269.23688	1366.7738	-704.55548
